<svg id="visual" viewBox="0 0 900 600" width="900" height="600" xmlns="http://www.w3.org/2000/svg" xmlns:xlink="http://www.w3.org/1999/xlink" version="1.1"><rect x="0" y="0" width="900" height="600" fill="#001220"></rect><defs><linearGradient id="grad1_0" x1="33.3%" y1="0%" x2="100%" y2="100%"><stop offset="20%" stop-color="#fbae3c" stop-opacity="1"></stop><stop offset="80%" stop-color="#fbae3c" stop-opacity="1"></stop></linearGradient></defs><defs><linearGradient id="grad1_1" x1="33.3%" y1="0%" x2="100%" y2="100%"><stop offset="20%" stop-color="#fbae3c" stop-opacity="1"></stop><stop offset="80%" stop-color="#f17c53" stop-opacity="1"></stop></linearGradient></defs><defs><linearGradient id="grad1_2" x1="33.3%" y1="0%" x2="100%" y2="100%"><stop offset="20%" stop-color="#cc5867" stop-opacity="1"></stop><stop offset="80%" stop-color="#f17c53" stop-opacity="1"></stop></linearGradient></defs><defs><linearGradient id="grad1_3" x1="33.3%" y1="0%" x2="100%" y2="100%"><stop offset="20%" stop-color="#cc5867" stop-opacity="1"></stop><stop offset="80%" stop-color="#96446e" stop-opacity="1"></stop></linearGradient></defs><defs><linearGradient id="grad1_4" x1="33.3%" y1="0%" x2="100%" y2="100%"><stop offset="20%" stop-color="#593762" stop-opacity="1"></stop><stop offset="80%" stop-color="#96446e" stop-opacity="1"></stop></linearGradient></defs><defs><linearGradient id="grad1_5" x1="33.3%" y1="0%" x2="100%" y2="100%"><stop offset="20%" stop-color="#593762" stop-opacity="1"></stop><stop offset="80%" stop-color="#232745" stop-opacity="1"></stop></linearGradient></defs><defs><linearGradient id="grad1_6" x1="33.3%" y1="0%" x2="100%" y2="100%"><stop offset="20%" stop-color="#001220" stop-opacity="1"></stop><stop offset="80%" stop-color="#232745" stop-opacity="1"></stop></linearGradient></defs><defs><linearGradient id="grad2_0" x1="0%" y1="0%" x2="66.7%" y2="100%"><stop offset="20%" stop-color="#fbae3c" stop-opacity="1"></stop><stop offset="80%" stop-color="#fbae3c" stop-opacity="1"></stop></linearGradient></defs><defs><linearGradient id="grad2_1" x1="0%" y1="0%" x2="66.7%" y2="100%"><stop offset="20%" stop-color="#f17c53" stop-opacity="1"></stop><stop offset="80%" stop-color="#fbae3c" stop-opacity="1"></stop></linearGradient></defs><defs><linearGradient id="grad2_2" x1="0%" y1="0%" x2="66.7%" y2="100%"><stop offset="20%" stop-color="#f17c53" stop-opacity="1"></stop><stop offset="80%" stop-color="#cc5867" stop-opacity="1"></stop></linearGradient></defs><defs><linearGradient id="grad2_3" x1="0%" y1="0%" x2="66.7%" y2="100%"><stop offset="20%" stop-color="#96446e" stop-opacity="1"></stop><stop offset="80%" stop-color="#cc5867" stop-opacity="1"></stop></linearGradient></defs><defs><linearGradient id="grad2_4" x1="0%" y1="0%" x2="66.7%" y2="100%"><stop offset="20%" stop-color="#96446e" stop-opacity="1"></stop><stop offset="80%" stop-color="#593762" stop-opacity="1"></stop></linearGradient></defs><defs><linearGradient id="grad2_5" x1="0%" y1="0%" x2="66.7%" y2="100%"><stop offset="20%" stop-color="#232745" stop-opacity="1"></stop><stop offset="80%" stop-color="#593762" stop-opacity="1"></stop></linearGradient></defs><defs><linearGradient id="grad2_6" x1="0%" y1="0%" x2="66.7%" y2="100%"><stop offset="20%" stop-color="#232745" stop-opacity="1"></stop><stop offset="80%" stop-color="#001220" stop-opacity="1"></stop></linearGradient></defs><g transform="translate(900, 0)"><path d="M0 540.8C-31.1 524.3 -62.3 507.8 -101.3 509C-140.2 510.2 -187 529.1 -207 499.7C-226.9 470.3 -219.9 392.6 -242.2 362.5C-264.6 332.4 -316.2 349.8 -330.2 330.2C-344.2 310.7 -320.7 254.2 -340.1 227.2C-359.5 200.2 -421.9 202.8 -444.4 184.1C-466.9 165.4 -449.6 125.5 -459 91.3C-468.4 57.1 -504.6 28.5 -540.8 0L0 0Z" fill="#0f1d33"></path><path d="M0 463.6C-26.7 449.4 -53.4 435.3 -86.8 436.3C-120.2 437.3 -160.3 453.5 -177.4 428.3C-194.5 403.1 -188.5 336.6 -207.6 310.7C-226.8 284.9 -271 299.8 -283 283C-295.1 266.3 -274.9 217.9 -291.5 194.8C-308.1 171.6 -361.6 173.8 -380.9 157.8C-400.2 141.8 -385.4 107.6 -393.4 78.3C-401.5 48.9 -432.5 24.5 -463.6 0L0 0Z" fill="#3d3056"></path><path d="M0 386.3C-22.2 374.5 -44.5 362.7 -72.3 363.6C-100.2 364.4 -133.6 377.9 -147.8 356.9C-162.1 335.9 -157.1 280.5 -173 258.9C-189 237.4 -225.9 249.8 -235.9 235.9C-245.9 221.9 -229 181.6 -242.9 162.3C-256.8 143 -301.3 144.8 -317.4 131.5C-333.5 118.1 -321.1 89.7 -327.9 65.2C-334.6 40.8 -360.5 20.4 -386.3 0L0 0Z" fill="#773d6b"></path><path d="M0 309C-17.8 299.6 -35.6 290.2 -57.9 290.9C-80.1 291.5 -106.9 302.3 -118.3 285.5C-129.6 268.7 -125.7 224.4 -138.4 207.2C-151.2 189.9 -180.7 199.9 -188.7 188.7C-196.7 177.5 -183.2 145.3 -194.3 129.8C-205.4 114.4 -241.1 115.9 -253.9 105.2C-266.8 94.5 -256.9 71.7 -262.3 52.2C-267.7 32.6 -288.4 16.3 -309 0L0 0Z" fill="#b34c6d"></path><path d="M0 231.8C-13.3 224.7 -26.7 217.6 -43.4 218.2C-60.1 218.7 -80.2 226.7 -88.7 214.1C-97.2 201.5 -94.2 168.3 -103.8 155.4C-113.4 142.5 -135.5 149.9 -141.5 141.5C-147.5 133.1 -137.4 108.9 -145.7 97.4C-154.1 85.8 -180.8 86.9 -190.5 78.9C-200.1 70.9 -192.7 53.8 -196.7 39.1C-200.8 24.5 -216.3 12.2 -231.8 0L0 0Z" fill="#e1685e"></path><path d="M0 154.5C-8.9 149.8 -17.8 145.1 -28.9 145.4C-40.1 145.8 -53.4 151.2 -59.1 142.8C-64.8 134.4 -62.8 112.2 -69.2 103.6C-75.6 95 -90.3 99.9 -94.3 94.3C-98.4 88.8 -91.6 72.6 -97.2 64.9C-102.7 57.2 -120.5 57.9 -127 52.6C-133.4 47.3 -128.5 35.9 -131.1 26.1C-133.8 16.3 -144.2 8.2 -154.5 0L0 0Z" fill="#f99447"></path><path d="M0 77.3C-4.4 74.9 -8.9 72.5 -14.5 72.7C-20 72.9 -26.7 75.6 -29.6 71.4C-32.4 67.2 -31.4 56.1 -34.6 51.8C-37.8 47.5 -45.2 50 -47.2 47.2C-49.2 44.4 -45.8 36.3 -48.6 32.5C-51.4 28.6 -60.3 29 -63.5 26.3C-66.7 23.6 -64.2 17.9 -65.6 13C-66.9 8.2 -72.1 4.1 -77.3 0L0 0Z" fill="#fbae3c"></path></g><g transform="translate(0, 600)"><path d="M0 -540.8C25.6 -492.2 51.1 -443.6 88.8 -446.3C126.4 -448.9 176.1 -503 207 -499.7C237.9 -496.4 250 -435.8 262.2 -392.5C274.4 -349.2 286.7 -323.2 300.5 -300.5C314.3 -277.9 329.7 -258.6 363.4 -242.8C397 -227 448.8 -214.6 450.9 -186.7C452.9 -158.9 405.2 -115.6 411.9 -81.9C418.6 -48.2 479.7 -24.1 540.8 0L0 0Z" fill="#0f1d33"></path><path d="M0 -463.6C21.9 -421.9 43.8 -380.2 76.1 -382.5C108.3 -384.8 150.9 -431.1 177.4 -428.3C203.9 -425.5 214.3 -373.5 224.8 -336.4C235.2 -299.3 245.7 -277 257.6 -257.6C269.4 -238.2 282.6 -221.7 311.4 -208.1C340.3 -194.5 384.7 -183.9 386.4 -160.1C388.2 -136.2 347.3 -99.1 353.1 -70.2C358.8 -41.3 411.2 -20.7 463.6 0L0 0Z" fill="#3d3056"></path><path d="M0 -386.3C18.3 -351.6 36.5 -316.8 63.4 -318.8C90.3 -320.7 125.8 -359.3 147.8 -356.9C169.9 -354.5 178.6 -311.3 187.3 -280.3C196 -249.4 204.8 -230.8 214.7 -214.7C224.5 -198.5 235.5 -184.7 259.5 -173.4C283.5 -162.1 320.6 -153.3 322 -133.4C323.5 -113.5 289.4 -82.6 294.2 -58.5C299 -34.5 342.7 -17.2 386.3 0L0 0Z" fill="#773d6b"></path><path d="M0 -309C14.6 -281.3 29.2 -253.5 50.7 -255C72.2 -256.5 100.6 -287.4 118.3 -285.5C135.9 -283.6 142.9 -249 149.8 -224.3C156.8 -199.5 163.8 -184.7 171.7 -171.7C179.6 -158.8 188.4 -147.8 207.6 -138.7C226.8 -129.7 256.4 -122.6 257.6 -106.7C258.8 -90.8 231.6 -66.1 235.4 -46.8C239.2 -27.6 274.1 -13.8 309 0L0 0Z" fill="#b34c6d"></path><path d="M0 -231.8C11 -210.9 21.9 -190.1 38 -191.3C54.2 -192.4 75.5 -215.6 88.7 -214.1C101.9 -212.7 107.2 -186.8 112.4 -168.2C117.6 -149.6 122.9 -138.5 128.8 -128.8C134.7 -119.1 141.3 -110.8 155.7 -104.1C170.1 -97.3 192.3 -92 193.2 -80C194.1 -68.1 173.7 -49.6 176.5 -35.1C179.4 -20.7 205.6 -10.3 231.8 0L0 0Z" fill="#e1685e"></path><path d="M0 -154.5C7.3 -140.6 14.6 -126.7 25.4 -127.5C36.1 -128.3 50.3 -143.7 59.1 -142.8C68 -141.8 71.4 -124.5 74.9 -112.1C78.4 -99.8 81.9 -92.3 85.9 -85.9C89.8 -79.4 94.2 -73.9 103.8 -69.4C113.4 -64.8 128.2 -61.3 128.8 -53.4C129.4 -45.4 115.8 -33 117.7 -23.4C119.6 -13.8 137.1 -6.9 154.5 0L0 0Z" fill="#f99447"></path><path d="M0 -77.3C3.7 -70.3 7.3 -63.4 12.7 -63.8C18.1 -64.1 25.2 -71.9 29.6 -71.4C34 -70.9 35.7 -62.3 37.5 -56.1C39.2 -49.9 41 -46.2 42.9 -42.9C44.9 -39.7 47.1 -36.9 51.9 -34.7C56.7 -32.4 64.1 -30.7 64.4 -26.7C64.7 -22.7 57.9 -16.5 58.8 -11.7C59.8 -6.9 68.5 -3.4 77.3 0L0 0Z" fill="#fbae3c"></path></g></svg>