<svg xmlns="http://www.w3.org/2000/svg" xmlns:xlink="http://www.w3.org/1999/xlink" id="visual" width="6933" height="6600" version="1.1" viewBox="0 0 6933 6600"><rect width="6933" height="6600" x="0" y="0" fill="#001220"/><defs><linearGradient id="grad1_0" x1="4.8%" x2="100%" y1="0%" y2="100%"><stop offset="28.991%" stop-color="#fbae3c" stop-opacity="1"/><stop offset="71.009%" stop-color="#fbae3c" stop-opacity="1"/></linearGradient></defs><defs><linearGradient id="grad1_1" x1="4.8%" x2="100%" y1="0%" y2="100%"><stop offset="28.991%" stop-color="#fbae3c" stop-opacity="1"/><stop offset="71.009%" stop-color="#f17c53" stop-opacity="1"/></linearGradient></defs><defs><linearGradient id="grad1_2" x1="4.8%" x2="100%" y1="0%" y2="100%"><stop offset="28.991%" stop-color="#cc5867" stop-opacity="1"/><stop offset="71.009%" stop-color="#f17c53" stop-opacity="1"/></linearGradient></defs><defs><linearGradient id="grad1_3" x1="4.8%" x2="100%" y1="0%" y2="100%"><stop offset="28.991%" stop-color="#cc5867" stop-opacity="1"/><stop offset="71.009%" stop-color="#96446e" stop-opacity="1"/></linearGradient></defs><defs><linearGradient id="grad1_4" x1="4.8%" x2="100%" y1="0%" y2="100%"><stop offset="28.991%" stop-color="#593762" stop-opacity="1"/><stop offset="71.009%" stop-color="#96446e" stop-opacity="1"/></linearGradient></defs><defs><linearGradient id="grad1_5" x1="4.8%" x2="100%" y1="0%" y2="100%"><stop offset="28.991%" stop-color="#593762" stop-opacity="1"/><stop offset="71.009%" stop-color="#232745" stop-opacity="1"/></linearGradient></defs><defs><linearGradient id="grad1_6" x1="4.8%" x2="100%" y1="0%" y2="100%"><stop offset="28.991%" stop-color="#001220" stop-opacity="1"/><stop offset="71.009%" stop-color="#232745" stop-opacity="1"/></linearGradient></defs><defs><linearGradient id="grad2_0" x1="0%" x2="95.2%" y1="0%" y2="100%"><stop offset="28.991%" stop-color="#fbae3c" stop-opacity="1"/><stop offset="71.009%" stop-color="#fbae3c" stop-opacity="1"/></linearGradient></defs><defs><linearGradient id="grad2_1" x1="0%" x2="95.2%" y1="0%" y2="100%"><stop offset="28.991%" stop-color="#f17c53" stop-opacity="1"/><stop offset="71.009%" stop-color="#fbae3c" stop-opacity="1"/></linearGradient></defs><defs><linearGradient id="grad2_2" x1="0%" x2="95.2%" y1="0%" y2="100%"><stop offset="28.991%" stop-color="#f17c53" stop-opacity="1"/><stop offset="71.009%" stop-color="#cc5867" stop-opacity="1"/></linearGradient></defs><defs><linearGradient id="grad2_3" x1="0%" x2="95.2%" y1="0%" y2="100%"><stop offset="28.991%" stop-color="#96446e" stop-opacity="1"/><stop offset="71.009%" stop-color="#cc5867" stop-opacity="1"/></linearGradient></defs><defs><linearGradient id="grad2_4" x1="0%" x2="95.2%" y1="0%" y2="100%"><stop offset="28.991%" stop-color="#96446e" stop-opacity="1"/><stop offset="71.009%" stop-color="#593762" stop-opacity="1"/></linearGradient></defs><defs><linearGradient id="grad2_5" x1="0%" x2="95.2%" y1="0%" y2="100%"><stop offset="28.991%" stop-color="#232745" stop-opacity="1"/><stop offset="71.009%" stop-color="#593762" stop-opacity="1"/></linearGradient></defs><defs><linearGradient id="grad2_6" x1="0%" x2="95.2%" y1="0%" y2="100%"><stop offset="28.991%" stop-color="#232745" stop-opacity="1"/><stop offset="71.009%" stop-color="#001220" stop-opacity="1"/></linearGradient></defs><g><path fill="#0f1d33" d="M0 4307.5C-453.1 4216.8 -906.3 4126.1 -1259.6 3876.5C-1612.8 3627 -1866.3 3218.6 -2113.1 2908.4C-2359.9 2598.3 -2600.1 2386.3 -2973.1 2160.1C-3346.2 1933.9 -3852.1 1693.5 -4096.7 1331.1C-4341.2 968.7 -4324.3 484.3 -4307.5 0L0 0Z" transform="translate(6933, 0)"/><path fill="#3d3056" d="M0 3692.1C-388.4 3614.4 -776.8 3536.6 -1079.6 3322.7C-1382.4 3108.8 -1599.7 2758.8 -1811.2 2492.9C-2022.8 2227.1 -2228.6 2045.4 -2548.4 1851.5C-2868.2 1657.6 -3301.8 1451.6 -3511.4 1140.9C-3721 830.3 -3706.6 415.2 -3692.1 0L0 0Z" transform="translate(6933, 0)"/><path fill="#773d6b" d="M0 3076.8C-323.7 3012 -647.3 2947.2 -899.7 2768.9C-1152 2590.7 -1333.1 2299 -1509.3 2077.4C-1685.6 1855.9 -1857.2 1704.5 -2123.7 1542.9C-2390.1 1381.4 -2751.5 1209.6 -2926.2 950.8C-3100.9 691.9 -3088.8 346 -3076.8 0L0 0Z" transform="translate(6933, 0)"/><path fill="#b34c6d" d="M0 2461.4C-258.9 2409.6 -517.9 2357.7 -719.7 2215.1C-921.6 2072.5 -1066.4 1839.2 -1207.5 1662C-1348.5 1484.7 -1485.8 1363.6 -1698.9 1234.3C-1912.1 1105.1 -2201.2 967.7 -2340.9 760.6C-2480.7 553.5 -2471 276.8 -2461.4 0L0 0Z" transform="translate(6933, 0)"/><path fill="#e1685e" d="M0 1846.1C-194.2 1807.2 -388.4 1768.3 -539.8 1661.4C-691.2 1554.4 -799.8 1379.4 -905.6 1246.5C-1011.4 1113.5 -1114.3 1022.7 -1274.2 925.8C-1434.1 828.8 -1650.9 725.8 -1755.7 570.5C-1860.5 415.2 -1853.3 207.6 -1846.1 0L0 0Z" transform="translate(6933, 0)"/><path fill="#f99447" d="M0 1230.7C-129.5 1204.8 -258.9 1178.9 -359.9 1107.6C-460.8 1036.3 -533.2 919.6 -603.7 831C-674.3 742.4 -742.9 681.8 -849.5 617.2C-956.1 552.5 -1100.6 483.9 -1170.5 380.3C-1240.3 276.8 -1235.5 138.4 -1230.7 0L0 0Z" transform="translate(6933, 0)"/><path fill="#fbae3c" d="M0 615.4C-64.7 602.4 -129.5 589.4 -179.9 553.8C-230.4 518.1 -266.6 459.8 -301.9 415.5C-337.1 371.2 -371.4 340.9 -424.7 308.6C-478 276.3 -550.3 241.9 -585.2 190.2C-620.2 138.4 -617.8 69.2 -615.4 0L0 0Z" transform="translate(6933, 0)"/></g><g><path fill="#0f1d33" d="M0 -4307.5C398.6 -4043.3 797.3 -3779.2 1158.5 -3565.5C1519.7 -3351.8 1843.6 -3188.6 2183 -3004.7C2522.5 -2820.7 2877.6 -2616 3226.4 -2344.1C3575.1 -2072.1 3917.5 -1733 4096.7 -1331.1C4275.8 -929.2 4291.6 -464.6 4307.5 0L0 0Z" transform="translate(0, 6600)"/><path fill="#3d3056" d="M0 -3692.1C341.7 -3465.7 683.4 -3239.3 993 -3056.2C1302.6 -2873 1580.2 -2733.1 1871.2 -2575.4C2162.1 -2417.8 2466.5 -2242.3 2765.5 -2009.2C3064.4 -1776.1 3357.9 -1485.4 3511.4 -1140.9C3665 -796.5 3678.5 -398.2 3692.1 0L0 0Z" transform="translate(0, 6600)"/><path fill="#773d6b" d="M0 -3076.8C284.7 -2888.1 569.5 -2699.4 827.5 -2546.8C1085.5 -2394.2 1316.8 -2277.6 1559.3 -2146.2C1801.8 -2014.8 2055.4 -1868.6 2304.5 -1674.3C2553.7 -1480.1 2798.2 -1237.8 2926.2 -950.8C3054.1 -663.7 3065.5 -331.9 3076.8 0L0 0Z" transform="translate(0, 6600)"/><path fill="#b34c6d" d="M0 -2461.4C227.8 -2310.5 455.6 -2159.5 662 -2037.4C868.4 -1915.3 1053.5 -1822.1 1247.4 -1717C1441.4 -1611.8 1644.3 -1494.9 1843.6 -1339.5C2042.9 -1184.1 2238.6 -990.3 2340.9 -760.6C2443.3 -531 2452.4 -265.5 2461.4 0L0 0Z" transform="translate(0, 6600)"/><path fill="#e1685e" d="M0 -1846.1C170.8 -1732.9 341.7 -1619.6 496.5 -1528.1C651.3 -1436.5 790.1 -1366.6 935.6 -1287.7C1081.1 -1208.9 1233.3 -1121.2 1382.7 -1004.6C1532.2 -888.1 1678.9 -742.7 1755.7 -570.5C1832.5 -398.2 1839.3 -199.1 1846.1 0L0 0Z" transform="translate(0, 6600)"/><path fill="#f99447" d="M0 -1230.7C113.9 -1155.2 227.8 -1079.8 331 -1018.7C434.2 -957.7 526.7 -911 623.7 -858.5C720.7 -805.9 822.2 -747.4 921.8 -669.7C1021.5 -592 1119.3 -495.1 1170.5 -380.3C1221.7 -265.5 1226.2 -132.7 1230.7 0L0 0Z" transform="translate(0, 6600)"/><path fill="#fbae3c" d="M0 -615.4C56.9 -577.6 113.9 -539.9 165.5 -509.4C217.1 -478.8 263.4 -455.5 311.9 -429.2C360.4 -403 411.1 -373.7 460.9 -334.9C510.7 -296 559.6 -247.6 585.2 -190.2C610.8 -132.7 613.1 -66.4 615.4 0L0 0Z" transform="translate(0, 6600)"/></g></svg>