<svg id="visual" viewBox="0 0 2440 2440" width="2440" height="2440" xmlns="http://www.w3.org/2000/svg" xmlns:xlink="http://www.w3.org/1999/xlink" version="1.1"><rect x="0" y="0" width="2440" height="2440" fill="#001220"></rect><defs><linearGradient id="grad1_0" x1="0%" y1="0%" x2="100%" y2="100%"><stop offset="30%" stop-color="#fbae3c" stop-opacity="1"></stop><stop offset="70%" stop-color="#fbae3c" stop-opacity="1"></stop></linearGradient></defs><defs><linearGradient id="grad1_1" x1="0%" y1="0%" x2="100%" y2="100%"><stop offset="30%" stop-color="#fbae3c" stop-opacity="1"></stop><stop offset="70%" stop-color="#e1685e" stop-opacity="1"></stop></linearGradient></defs><defs><linearGradient id="grad1_2" x1="0%" y1="0%" x2="100%" y2="100%"><stop offset="30%" stop-color="#96446e" stop-opacity="1"></stop><stop offset="70%" stop-color="#e1685e" stop-opacity="1"></stop></linearGradient></defs><defs><linearGradient id="grad1_3" x1="0%" y1="0%" x2="100%" y2="100%"><stop offset="30%" stop-color="#96446e" stop-opacity="1"></stop><stop offset="70%" stop-color="#3d3056" stop-opacity="1"></stop></linearGradient></defs><defs><linearGradient id="grad1_4" x1="0%" y1="0%" x2="100%" y2="100%"><stop offset="30%" stop-color="#001220" stop-opacity="1"></stop><stop offset="70%" stop-color="#3d3056" stop-opacity="1"></stop></linearGradient></defs><defs><linearGradient id="grad2_0" x1="0%" y1="0%" x2="100%" y2="100%"><stop offset="30%" stop-color="#fbae3c" stop-opacity="1"></stop><stop offset="70%" stop-color="#fbae3c" stop-opacity="1"></stop></linearGradient></defs><defs><linearGradient id="grad2_1" x1="0%" y1="0%" x2="100%" y2="100%"><stop offset="30%" stop-color="#e1685e" stop-opacity="1"></stop><stop offset="70%" stop-color="#fbae3c" stop-opacity="1"></stop></linearGradient></defs><defs><linearGradient id="grad2_2" x1="0%" y1="0%" x2="100%" y2="100%"><stop offset="30%" stop-color="#e1685e" stop-opacity="1"></stop><stop offset="70%" stop-color="#96446e" stop-opacity="1"></stop></linearGradient></defs><defs><linearGradient id="grad2_3" x1="0%" y1="0%" x2="100%" y2="100%"><stop offset="30%" stop-color="#3d3056" stop-opacity="1"></stop><stop offset="70%" stop-color="#96446e" stop-opacity="1"></stop></linearGradient></defs><defs><linearGradient id="grad2_4" x1="0%" y1="0%" x2="100%" y2="100%"><stop offset="30%" stop-color="#3d3056" stop-opacity="1"></stop><stop offset="70%" stop-color="#001220" stop-opacity="1"></stop></linearGradient></defs><g transform="translate(2440, 0)"><path d="M0 1725.3C-146.3 1599.8 -292.7 1474.2 -465.4 1432.3C-638.1 1390.4 -837.1 1432.2 -1000.4 1376.9C-1163.7 1321.7 -1291.3 1169.5 -1395.8 1014.1C-1500.4 858.7 -1581.9 700.1 -1633 530.6C-1684 361 -1704.7 180.5 -1725.3 0L0 0Z" fill="#18223c"></path><path d="M0 1380.3C-117.1 1279.8 -234.2 1179.4 -372.3 1145.8C-510.5 1112.3 -669.7 1145.7 -800.3 1101.6C-931 1057.4 -1033 935.6 -1116.7 811.3C-1200.3 687 -1265.5 560.1 -1306.4 424.5C-1347.2 288.8 -1363.8 144.4 -1380.3 0L0 0Z" fill="#683a67"></path><path d="M0 1035.2C-87.8 959.9 -175.6 884.5 -279.2 859.4C-382.8 834.2 -502.3 859.3 -600.2 826.2C-698.2 793 -774.8 701.7 -837.5 608.5C-900.2 515.2 -949.1 420.1 -979.8 318.3C-1010.4 216.6 -1022.8 108.3 -1035.2 0L0 0Z" fill="#c0526a"></path><path d="M0 690.1C-58.5 639.9 -117.1 589.7 -186.2 572.9C-255.2 556.2 -334.8 572.9 -400.2 550.8C-465.5 528.7 -516.5 467.8 -558.3 405.7C-600.1 343.5 -632.8 280.1 -653.2 212.2C-673.6 144.4 -681.9 72.2 -690.1 0L0 0Z" fill="#f6884d"></path><path d="M0 345.1C-29.3 320 -58.5 294.8 -93.1 286.5C-127.6 278.1 -167.4 286.4 -200.1 275.4C-232.7 264.3 -258.3 233.9 -279.2 202.8C-300.1 171.7 -316.4 140 -326.6 106.1C-336.8 72.2 -340.9 36.1 -345.1 0L0 0Z" fill="#fbae3c"></path></g><g transform="translate(0, 2440)"><path d="M0 -1725.3C157.3 -1610.1 314.6 -1494.8 460.4 -1417.1C606.3 -1339.4 740.6 -1299.3 907.5 -1249.1C1074.5 -1198.9 1274.1 -1138.7 1395.8 -1014.1C1517.6 -889.6 1561.5 -700.7 1603.5 -521C1645.4 -341.3 1685.4 -170.6 1725.3 0L0 0Z" fill="#18223c"></path><path d="M0 -1380.3C125.8 -1288 251.7 -1195.8 368.3 -1133.7C485 -1071.5 592.5 -1039.4 726 -999.3C859.6 -959.2 1019.3 -910.9 1116.7 -811.3C1214.1 -711.7 1249.2 -560.6 1282.8 -416.8C1316.3 -273 1348.3 -136.5 1380.3 0L0 0Z" fill="#683a67"></path><path d="M0 -1035.2C94.4 -966 188.8 -896.9 276.3 -850.2C363.8 -803.6 444.4 -779.6 544.5 -749.5C644.7 -719.4 764.4 -683.2 837.5 -608.5C910.6 -533.7 936.9 -420.4 962.1 -312.6C987.3 -204.8 1011.2 -102.4 1035.2 0L0 0Z" fill="#c0526a"></path><path d="M0 -690.1C62.9 -644 125.8 -597.9 184.2 -566.8C242.5 -535.8 296.2 -519.7 363 -499.6C429.8 -479.6 509.6 -455.5 558.3 -405.7C607 -355.8 624.6 -280.3 641.4 -208.4C658.2 -136.5 674.2 -68.3 690.1 0L0 0Z" fill="#f6884d"></path><path d="M0 -345.1C31.5 -322 62.9 -299 92.1 -283.4C121.3 -267.9 148.1 -259.9 181.5 -249.8C214.9 -239.8 254.8 -227.7 279.2 -202.8C303.5 -177.9 312.3 -140.1 320.7 -104.2C329.1 -68.3 337.1 -34.1 345.1 0L0 0Z" fill="#fbae3c"></path></g></svg>